<!-- Generated by IcoMoon.io -->
<svg version="1.1" xmlns="http://www.w3.org/2000/svg" width="1024" height="1024" viewBox="0 0 1024 1024">
<title></title>
<g id="icomoon-ignore">
</g>
<path d="M426.667 597.333c-23.564 0-42.667 19.103-42.667 42.667s19.103 42.667 42.667 42.667zM853.333 682.667c23.564 0 42.667-19.103 42.667-42.667s-19.103-42.667-42.667-42.667zM426.667 682.667h426.667v-85.333h-426.667z"></path>
<path d="M385.068 639.821c0 15.019-12.18 27.2-27.2 27.2v108.8c75.114 0 135.998-60.885 135.998-135.998zM357.867 667.022c-15.019 0-27.2-12.18-27.2-27.2h-108.8c0 75.114 60.885 135.998 135.998 135.998zM330.669 639.821c0-15.019 12.18-27.2 27.2-27.2v-108.8c-75.114 0-135.998 60.885-135.998 135.998zM357.867 612.621c15.019 0 27.2 12.18 27.2 27.2h108.8c0-75.114-60.885-135.998-135.998-135.998z"></path>
<path d="M597.333 341.333c23.564 0 42.667 19.103 42.667 42.667s-19.103 42.667-42.667 42.667zM170.667 426.667c-23.564 0-42.667-19.103-42.667-42.667s19.103-42.667 42.667-42.667zM597.333 426.667h-426.667v-85.333h426.667z"></path>
<path d="M170.667 597.333c-23.564 0-42.667 19.103-42.667 42.667s19.103 42.667 42.667 42.667zM256 682.667c23.564 0 42.667-19.103 42.667-42.667s-19.103-42.667-42.667-42.667zM170.667 682.667h85.333v-85.333h-85.333z"></path>
<path d="M853.333 341.333c23.564 0 42.667 19.103 42.667 42.667s-19.103 42.667-42.667 42.667zM768 426.667c-23.564 0-42.667-19.103-42.667-42.667s19.103-42.667 42.667-42.667zM853.333 426.667h-85.333v-85.333h85.333z"></path>
<path d="M656 384c0 14.726 11.941 26.667 26.667 26.667v106.667c-73.641 0-133.333-59.693-133.333-133.333zM682.667 410.667c14.726 0 26.667-11.941 26.667-26.667h106.667c0 73.641-59.693 133.333-133.333 133.333zM709.333 384c0-14.726-11.941-26.667-26.667-26.667v-106.667c73.641 0 133.333 59.693 133.333 133.333zM682.667 357.333c-14.726 0-26.667 11.941-26.667 26.667h-106.667c0-73.641 59.693-133.333 133.333-133.333z"></path>
</svg>
